Coordinates
version=1
nRows=17
nColumns=24
inDegrees=yes

Units are S.I. units (second, meters, Newtons, ...)
Angles are in degrees.

endheader
time	pelvis_tilt	pelvis_list	pelvis_rotation	pelvis_tx	pelvis_ty	pelvis_tz	hip_flexion_r	hip_adduction_r	hip_rotation_r	knee_angle_r	ankle_angle_r	subtalar_angle_r	mtp_angle_r	hip_flexion_l	hip_adduction_l	hip_rotation_l	knee_angle_l	ankle_angle_l	subtalar_angle_l	mtp_angle_l	lumbar_extension	lumbar_bending	lumbar_rotation
      0.66183333	     -1.69633186	     -0.10609574	     -1.95644538	     -0.47116513	      1.06187120	      0.30237353	     14.57339186	      4.39356339	     -1.60029060	    -17.61976403	      5.00570716	     -6.08626141	      0.56504180	     18.69138288	     -0.85835308	     -3.88190933	    -65.70414271	      6.87158432	      1.35536457	      1.08980643	      1.33589151	      3.40452226	     -0.16083315
      0.66600000	     -1.72080438	      0.02428120	     -1.97817316	     -0.46582036	      1.06244807	      0.30269575	     14.25875154	      4.31235520	     -1.39987876	    -17.56218273	      5.04193015	     -6.37655520	      0.56832701	     19.28125170	     -0.73291099	     -3.84559275	    -65.43723383	      7.23731435	      0.93360346	      1.06455495	      1.34238447	      3.23173014	     -0.05368936
      0.67016667	     -1.72496118	      0.12736871	     -1.94642852	     -0.46046269	      1.06304611	      0.30302948	     13.90247383	      4.25567079	     -1.21817462	    -17.46558863	      5.09282997	     -6.57150415	      0.57010703	     19.83863086	     -0.62976335	     -3.76062895	    -65.09392908	      7.54527240	      0.57654061	      1.04709827	      1.32871467	      3.01100457	      0.02866965
      0.67433333	     -1.72169363	      0.26681970	     -1.96476183	     -0.45511043	      1.06364728	      0.30328045	     13.55654095	      4.15236076	     -1.04538654	    -17.40798974	      5.16044594	     -6.85153449	      0.57088746	     20.35751217	     -0.48387795	     -3.74080942	    -64.65225986	      7.90835839	      0.08400454	      1.02348387	      1.32395002	      2.83123468	      0.10551236
      0.67850000	     -1.72049378	      0.38248007	     -1.96114935	     -0.44976871	      1.06422095	      0.30357135	     13.20149886	      4.07794461	     -0.85650967	    -17.32573622	      5.21567720	     -7.12777997	      0.57140949	     20.86610666	     -0.36623651	     -3.70845765	    -64.13713794	      8.18205022	     -0.43113556	      0.99257495	      1.30398882	      2.66053624	      0.18297492
      0.68266667	     -1.71944859	      0.50187425	     -1.95963614	     -0.44440051	      1.06478586	      0.30381126	     12.84553968	      3.99095841	     -0.69733115	    -17.24444672	      5.27406209	     -7.39564986	      0.57164004	     21.34751375	     -0.23790118	     -3.68451142	    -63.52946068	      8.41694712	     -0.97179357	      0.95636994	      1.29988778	      2.49746667	      0.25811128
      0.68683333	     -1.72492690	      0.60847624	     -1.95110579	     -0.43903663	      1.06532238	      0.30402412	     12.49217502	      3.91449186	     -0.53087198	    -17.15876569	      5.33980628	     -7.65798505	      0.57182456	     21.81910354	     -0.12141546	     -3.66384545	    -62.84996669	      8.60169025	     -1.55606023	      0.91131911	      1.27603110	      2.35388129	      0.32749868
      0.69100000	     -1.72672472	      0.71703878	     -1.96188898	     -0.43375596	      1.06581788	      0.30426872	     12.14849477	      3.83989333	     -0.36474762	    -17.08664700	      5.39442092	     -7.94343393	      0.57223351	     22.26879801	     -0.00995095	     -3.67311760	    -62.08689173	      8.68228110	     -2.26629279	      0.83578683	      1.18341823	      2.24525341	      0.40022019
      0.69516667	     -1.69481433	      0.79604317	     -1.88930964	     -0.42830455	      1.06638292	      0.30441131	     11.72492944	      3.77659198	     -0.27513498	    -16.95186974	      5.48775487	     -8.09675491	      0.57224317	     22.65055324	      0.09832734	     -3.59694194	    -61.24509609	      8.84222637	     -2.69756957	      0.79340336	      1.23425147	      2.09285511	      0.45702735
      0.69933333	     -1.68896951	      0.88378013	     -1.85260988	     -0.42290378	      1.06687536	      0.30454999	     11.34402223	      3.70660742	     -0.16498749	    -16.84134050	      5.61351214	     -8.29906068	      0.57083326	     23.03607456	      0.20703832	     -3.57523164	    -60.32726172	      9.00368833	     -3.28932097	      0.74258516	      1.22617754	      1.96359243	      0.49634147
      0.70350000	     -1.70207401	      0.95535064	     -1.84135135	     -0.41762186	      1.06727909	      0.30469975	     10.99753498	      3.65743060	     -0.02100834	    -16.74874988	      5.70726076	     -8.53305612	      0.56722458	     23.42962039	      0.28875045	     -3.59158705	    -59.33695737	      8.94490838	     -4.14377415	      0.63542605	      1.08473929	      1.87215815	      0.53199402
      0.70766667	     -1.68626382	      1.01352144	     -1.74845967	     -0.41212559	      1.06775331	      0.30475348	     10.57622726	      3.60585949	      0.02581841	    -16.59141639	      5.80664797	     -8.63655798	      0.56531653	     23.74870590	      0.38622839	     -3.51617898	    -58.26019881	      9.04870583	     -4.46286461	      0.59509099	      1.17527029	      1.80134514	      0.56310783
      0.71183333	     -1.67441079	      1.07092620	     -1.68953512	     -0.40667647	      1.06818583	      0.30480229	     10.16865953	      3.55731720	      0.09709726	    -16.45328799	      5.96767782	     -8.82026845	      0.56093789	     24.04454211	      0.47531810	     -3.49379351	    -57.10792501	      9.13286737	     -5.08830559	      0.52869874	      1.17746267	      1.69359275	      0.58739854
      0.71600000	     -1.65932020	      1.10808098	     -1.64486850	     -0.40138765	      1.06855659	      0.30484906	      9.77063757	      3.53132456	      0.20199863	    -16.32244383	      6.08895793	     -9.00615015	      0.55055310	     24.32824626	      0.53829254	     -3.49618627	    -55.88723646	      8.94987321	     -5.98930217	      0.39021950	      0.98932095	      1.61635556	      0.59787362
      0.72016667	     -1.66046524	      1.14000657	     -1.55882445	     -0.39591699	      1.06891060	      0.30482010	      9.36192926	      3.50239900	      0.24098136	    -16.15525894	      6.21389762	     -9.12529072	      0.53918571	     24.58488946	      0.61249180	     -3.45682583	    -54.58534785	      8.89524850	     -6.52648911	      0.26259715	      0.99225999	      1.55369265	      0.61888512
      0.72433333	     -1.67645240	      1.15456663	     -1.46771184	     -0.39042689	      1.06920726	      0.30478193	      8.96278235	      3.49335149	      0.27593117	    -15.97782579	      6.32096580	     -9.21205759	      0.53319348	     24.82704198	      0.66728020	     -3.41233568	    -53.22177349	      8.94264519	     -6.78444058	      0.20640852	      1.07849925	      1.59208360	      0.62164627
      0.72850000	     -1.66818302	      1.17526749	     -1.40173115	     -0.38500178	      1.06950185	      0.30475878	      8.54351553	      3.47853973	      0.34464102	    -15.80839657	      6.49716378	     -9.38227671	      0.51494335	     25.01588742	      0.72223122	     -3.41799789	    -51.77035015	      8.76205532	     -7.51815840	      0.05133852	      0.96143838	      1.48000169	      0.62656124
